# Blender 3.5.0
# www.blender.org
mtllib plat_hole1.mtl
o Cube
v -19.307302 -0.531479 19.307302
v -19.307302 0.531479 19.307302
v -19.307302 -0.531479 -19.307302
v -19.307302 0.531479 -19.307302
v 19.307302 -0.531479 19.307302
v 19.307302 0.531479 19.307302
v 19.307302 -0.531479 -19.307302
v 19.307302 0.531479 -19.307302
v 7.172621 -0.531478 -2.513207
v 2.187535 -0.531479 7.140462
v -7.094323 -0.531479 5.576218
v -8.285770 -0.531479 -1.292127
v -2.490869 -0.531479 -8.001043
v 7.172614 0.531480 -2.513208
v 2.187530 0.531479 7.140462
v -7.094323 0.531479 5.576220
v -8.285772 0.531479 -1.292125
v -2.490871 0.531479 -8.001043
vn -1.0000 -0.0000 -0.0000
vn -0.0000 -0.0000 -1.0000
vn 1.0000 -0.0000 -0.0000
vn -0.0000 -0.0000 1.0000
vn -0.0000 -1.0000 -0.0000
vn -0.0000 1.0000 -0.0000
vn -0.4938 -0.0000 0.8696
vn 0.7568 -0.0000 0.6537
vn 0.9853 -0.0000 -0.1709
vn 0.1662 -0.0000 -0.9861
vn -0.8885 -0.0000 -0.4588
vt 0.375000 0.000000
vt 0.375000 1.000000
vt 0.125000 0.750000
vt 0.625000 0.000000
vt 0.625000 1.000000
vt 0.875000 0.750000
vt 0.375000 0.250000
vt 0.125000 0.500000
vt 0.625000 0.250000
vt 0.875000 0.500000
vt 0.375000 0.750000
vt 0.625000 0.750000
vt 0.375000 0.500000
vt 0.625000 0.500000
vt 0.266852 0.624034
vt 0.249455 0.659069
vt 0.219977 0.642639
vt 0.215870 0.618960
vt 0.233750 0.591415
vt 0.733148 0.624034
vt 0.750545 0.659069
vt 0.780023 0.642639
vt 0.784130 0.618960
vt 0.766250 0.591415
s 0
f 1/1/1 2/4/1 4/9/1 3/7/1
f 3/7/2 4/9/2 8/14/2 7/13/2
f 7/13/3 8/14/3 6/12/3 5/11/3
f 5/11/4 6/12/4 2/5/4 1/2/4
f 3/8/5 7/13/5 9/15/5 13/19/5 12/18/5
f 2/6/6 16/22/6 17/23/6 4/10/6
f 10/16/5 9/15/5 7/13/5 5/11/5
f 4/10/6 17/23/6 18/24/6 14/20/6 8/14/6
f 14/20/7 18/24/7 13/19/7 9/15/7
f 18/24/8 17/23/8 12/18/8 13/19/8
f 17/23/9 16/22/9 11/17/9 12/18/9
f 16/22/10 15/21/10 10/16/10 11/17/10
f 15/21/11 14/20/11 9/15/11 10/16/11
f 6/12/6 15/21/6 16/22/6 2/6/6
f 8/14/6 14/20/6 15/21/6 6/12/6
f 12/18/5 11/17/5 1/3/5 3/8/5
f 11/17/5 10/16/5 5/11/5 1/3/5
