# Blender 3.4.1
# www.blender.org
mtllib sword.mtl
o sword
v -0.075397 1.431022 0.000000
v -0.075397 1.431022 0.000000
v 0.075397 1.431022 0.000000
v 0.075397 1.431022 0.000000
v 0.000000 1.431022 -0.026304
v 0.000000 1.431022 0.026304
v 0.000000 1.759494 0.000000
v 0.000000 1.759494 0.000000
v 0.000000 1.759494 0.000000
v 0.000000 1.759494 0.000000
v 0.000000 1.759494 0.000000
v 0.000000 1.759494 0.000000
v -0.080928 0.187369 0.000000
v -0.080928 0.187369 0.000000
v 0.000000 0.187369 -0.026304
v 0.080928 0.187369 0.000000
v 0.080928 0.187369 0.000000
v 0.000000 0.187369 0.026304
v 0.000000 -0.154532 -0.036107
v 0.000000 0.170145 -0.036107
v 0.007044 -0.154532 -0.035414
v 0.007044 0.170145 -0.035414
v 0.013818 -0.154532 -0.033359
v 0.013818 0.170145 -0.033359
v 0.020060 -0.154532 -0.030022
v 0.020060 0.170145 -0.030022
v 0.025532 -0.154532 -0.025532
v 0.025532 0.170145 -0.025532
v 0.030022 -0.154532 -0.020060
v 0.030022 0.170145 -0.020060
v 0.033359 -0.154532 -0.013818
v 0.033359 0.170145 -0.013818
v 0.035414 -0.154532 -0.007044
v 0.035414 0.170145 -0.007044
v 0.036107 -0.154532 -0.000000
v 0.036107 0.170145 -0.000000
v 0.035414 -0.154532 0.007044
v 0.035414 0.170145 0.007044
v 0.033359 -0.154532 0.013818
v 0.033359 0.170145 0.013818
v 0.030022 -0.154532 0.020060
v 0.030022 0.170145 0.020060
v 0.025532 -0.154532 0.025532
v 0.025532 0.170145 0.025532
v 0.020060 -0.154532 0.030022
v 0.020060 0.170145 0.030022
v 0.013818 -0.154532 0.033359
v 0.013818 0.170145 0.033359
v 0.007044 -0.154532 0.035414
v 0.007044 0.170145 0.035414
v 0.000000 -0.154532 0.036107
v 0.000000 0.170145 0.036107
v -0.007044 -0.154532 0.035414
v -0.007044 0.170145 0.035414
v -0.013818 -0.154532 0.033359
v -0.013818 0.170145 0.033359
v -0.020060 -0.154532 0.030022
v -0.020060 0.170145 0.030022
v -0.025532 -0.154532 0.025532
v -0.025532 0.170145 0.025532
v -0.030022 -0.154532 0.020060
v -0.030022 0.170145 0.020060
v -0.033359 -0.154532 0.013818
v -0.033359 0.170145 0.013818
v -0.035414 -0.154532 0.007044
v -0.035414 0.170145 0.007044
v -0.036107 -0.154532 -0.000000
v -0.036107 0.170145 -0.000000
v -0.035414 -0.154532 -0.007044
v -0.035414 0.170145 -0.007044
v -0.033359 -0.154532 -0.013818
v -0.033359 0.170145 -0.013818
v -0.030022 -0.154532 -0.020060
v -0.030022 0.170145 -0.020060
v -0.025532 -0.154532 -0.025532
v -0.025532 0.170145 -0.025532
v -0.020060 -0.154532 -0.030022
v -0.020060 0.170145 -0.030022
v -0.013818 -0.154532 -0.033359
v -0.013818 0.170145 -0.033359
v -0.007044 -0.154532 -0.035414
v -0.007044 0.170145 -0.035414
v -0.127920 0.144647 0.048271
v -0.151701 0.168429 0.023140
v -0.144736 0.151613 0.040910
v -0.127920 0.232383 0.048271
v -0.151701 0.208601 0.023140
v -0.144736 0.225417 0.040910
v -0.151701 0.168429 -0.023140
v -0.127920 0.144647 -0.048271
v -0.144736 0.151613 -0.040910
v -0.127920 0.232383 -0.048271
v -0.151701 0.208601 -0.023140
v -0.144736 0.225417 -0.040910
v 0.151701 0.168429 0.023140
v 0.127920 0.144647 0.048271
v 0.144736 0.151613 0.040910
v 0.127920 0.232383 0.048271
v 0.151701 0.208601 0.023140
v 0.144736 0.225417 0.040910
v 0.151701 0.168429 -0.023140
v 0.127920 0.144647 -0.048271
v 0.144736 0.151613 -0.040910
v 0.151701 0.208601 -0.023140
v 0.127920 0.232383 -0.048271
v 0.144736 0.225417 -0.040910
vn -0.3190 0.0007 -0.9478
vn -0.3190 0.0007 0.9478
vn 0.3190 0.0007 0.9478
vn -0.0000 1.0000 -0.0000
vn 0.3285 0.0754 0.9415
vn 0.3190 0.0007 -0.9478
vn -0.3285 0.0754 -0.9415
vn -0.3285 0.0754 0.9415
vn 0.3285 0.0754 -0.9415
vn -0.0000 -1.0000 -0.0000
vn -0.0000 -0.0000 1.0000
vn 1.0000 -0.0000 -0.0000
vn -1.0000 -0.0000 -0.0000
vn -0.0000 -0.0000 -1.0000
vn 0.0980 -0.0000 -0.9952
vn 0.2903 -0.0000 -0.9569
vn 0.4714 -0.0000 -0.8819
vn 0.6344 -0.0000 -0.7730
vn 0.7730 -0.0000 -0.6344
vn 0.8819 -0.0000 -0.4714
vn 0.9569 -0.0000 -0.2903
vn 0.9952 -0.0000 -0.0980
vn 0.9952 -0.0000 0.0980
vn 0.9569 -0.0000 0.2903
vn 0.8819 -0.0000 0.4714
vn 0.7730 -0.0000 0.6344
vn 0.6344 -0.0000 0.7730
vn 0.4714 -0.0000 0.8819
vn 0.2903 -0.0000 0.9569
vn 0.0980 -0.0000 0.9952
vn -0.0980 -0.0000 0.9952
vn -0.2903 -0.0000 0.9569
vn -0.4714 -0.0000 0.8819
vn -0.6344 -0.0000 0.7730
vn -0.7730 -0.0000 0.6344
vn -0.8819 -0.0000 0.4714
vn -0.9569 -0.0000 0.2903
vn -0.9952 -0.0000 0.0980
vn -0.9952 -0.0000 -0.0980
vn -0.9569 -0.0000 -0.2903
vn -0.8819 -0.0000 -0.4714
vn -0.7730 -0.0000 -0.6344
vn -0.6344 -0.0000 -0.7730
vn -0.4714 -0.0000 -0.8819
vn -0.2903 -0.0000 -0.9569
vn -0.0980 -0.0000 -0.9952
vn -0.3827 -0.9239 -0.0000
vn -0.9239 -0.3827 -0.0000
vn -0.4010 -0.0000 0.9161
vn -0.9310 -0.0000 0.3649
vn -0.3827 0.9239 -0.0000
vn -0.9239 0.3827 -0.0000
vn -0.4010 -0.0000 -0.9161
vn -0.9310 -0.0000 -0.3649
vn 0.9310 -0.0000 -0.3649
vn 0.4010 -0.0000 -0.9161
vn 0.3827 -0.9239 -0.0000
vn 0.9239 -0.3827 -0.0000
vn 0.3827 0.9239 -0.0000
vn 0.9239 0.3827 -0.0000
vn 0.4010 -0.0000 0.9161
vn 0.9310 -0.0000 0.3649
vt 0.625000 1.000000
vt 0.625000 0.000000
vt 0.625000 0.250000
vt 0.625000 0.750000
vt 0.625000 0.500000
vt 0.625000 0.375000
vt 0.625000 0.875000
vt 0.875000 0.750000
vt 0.625000 0.000000
vt 0.625000 1.000000
vt 0.875000 0.500000
vt 0.625000 0.250000
vt 0.750000 0.500000
vt 0.625000 0.375000
vt 0.625000 0.500000
vt 0.625000 0.750000
vt 0.750000 0.750000
vt 0.625000 0.875000
vt 0.125000 0.500000
vt 0.375000 0.250000
vt 0.375000 1.000000
vt 0.125000 0.750000
vt 0.375000 0.000000
vt 0.375000 0.375000
vt 0.250000 0.500000
vt 0.375000 0.750000
vt 0.375000 0.500000
vt 0.375000 0.875000
vt 0.250000 0.750000
vt 1.000000 0.500000
vt 0.000000 0.500000
vt 0.750000 0.490000
vt 1.000000 1.000000
vt 0.250000 0.490000
vt 0.000000 1.000000
vt 0.968750 0.500000
vt 0.796822 0.485388
vt 0.968750 1.000000
vt 0.296822 0.485388
vt 0.937500 0.500000
vt 0.841844 0.471731
vt 0.937500 1.000000
vt 0.341844 0.471731
vt 0.906250 0.500000
vt 0.883337 0.449553
vt 0.906250 1.000000
vt 0.383337 0.449553
vt 0.875000 0.500000
vt 0.919706 0.419706
vt 0.875000 1.000000
vt 0.419706 0.419706
vt 0.843750 0.500000
vt 0.949553 0.383337
vt 0.843750 1.000000
vt 0.449553 0.383337
vt 0.812500 0.500000
vt 0.971731 0.341844
vt 0.812500 1.000000
vt 0.471731 0.341844
vt 0.781250 0.500000
vt 0.985388 0.296822
vt 0.781250 1.000000
vt 0.485388 0.296822
vt 0.750000 0.500000
vt 0.990000 0.250000
vt 0.750000 1.000000
vt 0.490000 0.250000
vt 0.718750 0.500000
vt 0.985388 0.203178
vt 0.718750 1.000000
vt 0.485388 0.203178
vt 0.687500 0.500000
vt 0.971731 0.158156
vt 0.687500 1.000000
vt 0.471731 0.158156
vt 0.656250 0.500000
vt 0.949553 0.116663
vt 0.656250 1.000000
vt 0.449553 0.116663
vt 0.625000 0.500000
vt 0.919706 0.080294
vt 0.625000 1.000000
vt 0.419706 0.080294
vt 0.593750 0.500000
vt 0.883337 0.050447
vt 0.593750 1.000000
vt 0.383337 0.050447
vt 0.562500 0.500000
vt 0.841844 0.028269
vt 0.562500 1.000000
vt 0.341844 0.028269
vt 0.531250 0.500000
vt 0.796822 0.014612
vt 0.531250 1.000000
vt 0.296822 0.014612
vt 0.500000 0.500000
vt 0.750000 0.010000
vt 0.500000 1.000000
vt 0.250000 0.010000
vt 0.468750 0.500000
vt 0.703178 0.014612
vt 0.468750 1.000000
vt 0.203178 0.014612
vt 0.437500 0.500000
vt 0.658156 0.028269
vt 0.437500 1.000000
vt 0.158156 0.028269
vt 0.406250 0.500000
vt 0.616663 0.050447
vt 0.406250 1.000000
vt 0.116663 0.050447
vt 0.375000 0.500000
vt 0.580294 0.080294
vt 0.375000 1.000000
vt 0.080294 0.080294
vt 0.343750 0.500000
vt 0.550447 0.116663
vt 0.343750 1.000000
vt 0.050447 0.116663
vt 0.312500 0.500000
vt 0.528269 0.158156
vt 0.312500 1.000000
vt 0.028269 0.158156
vt 0.281250 0.500000
vt 0.514612 0.203178
vt 0.281250 1.000000
vt 0.014612 0.203178
vt 0.250000 0.500000
vt 0.510000 0.250000
vt 0.250000 1.000000
vt 0.010000 0.250000
vt 0.218750 0.500000
vt 0.514612 0.296822
vt 0.218750 1.000000
vt 0.014612 0.296822
vt 0.187500 0.500000
vt 0.528269 0.341844
vt 0.187500 1.000000
vt 0.028269 0.341844
vt 0.156250 0.500000
vt 0.550447 0.383337
vt 0.156250 1.000000
vt 0.050447 0.383337
vt 0.125000 0.500000
vt 0.580294 0.419706
vt 0.125000 1.000000
vt 0.080294 0.419706
vt 0.093750 0.500000
vt 0.616663 0.449553
vt 0.093750 1.000000
vt 0.116663 0.449553
vt 0.062500 0.500000
vt 0.658156 0.471731
vt 0.158156 0.471731
vt 0.062500 1.000000
vt 0.031250 0.500000
vt 0.703178 0.485388
vt 0.203178 0.485388
vt 0.031250 1.000000
vt 0.375000 0.980404
vt 0.144596 0.750000
vt 0.442765 0.065078
vt 0.125000 0.730939
vt 0.375000 0.019061
vt 0.394848 1.000000
vt 0.394848 0.000000
vt 0.625000 0.980404
vt 0.855404 0.750000
vt 0.557235 0.065078
vt 0.605152 1.000000
vt 0.605152 0.000000
vt 0.875000 0.730939
vt 0.625000 0.019061
vt 0.442765 0.184922
vt 0.375000 0.269596
vt 0.144596 0.500000
vt 0.125000 0.519061
vt 0.375000 0.230939
vt 0.394848 0.250000
vt 0.855404 0.500000
vt 0.625000 0.269596
vt 0.557235 0.184922
vt 0.875000 0.519061
vt 0.625000 0.230939
vt 0.605152 0.250000
vt 0.442765 0.684922
vt 0.375000 0.769596
vt 0.355404 0.750000
vt 0.375000 0.730939
vt 0.394848 0.750000
vt 0.644596 0.750000
vt 0.625000 0.769596
vt 0.557235 0.684922
vt 0.625000 0.730939
vt 0.605152 0.750000
vt 0.442765 0.565078
vt 0.375000 0.480404
vt 0.355404 0.500000
vt 0.394848 0.500000
vt 0.375000 0.519061
vt 0.557235 0.565078
vt 0.625000 0.480404
vt 0.644596 0.500000
vt 0.605152 0.500000
vt 0.625000 0.519061
s 0
usemtl wood
f 19/30/15 20/33/15 22/38/15 21/36/15
f 21/36/16 22/38/16 24/42/16 23/40/16
f 23/40/17 24/42/17 26/46/17 25/44/17
f 25/44/18 26/46/18 28/50/18 27/48/18
f 27/48/19 28/50/19 30/54/19 29/52/19
f 29/52/20 30/54/20 32/58/20 31/56/20
f 31/56/21 32/58/21 34/62/21 33/60/21
f 33/60/22 34/62/22 36/66/22 35/64/22
f 35/64/23 36/66/23 38/70/23 37/68/23
f 37/68/24 38/70/24 40/74/24 39/72/24
f 39/72/25 40/74/25 42/78/25 41/76/25
f 41/76/26 42/78/26 44/82/26 43/80/26
f 43/80/27 44/82/27 46/86/27 45/84/27
f 45/84/28 46/86/28 48/90/28 47/88/28
f 47/88/29 48/90/29 50/94/29 49/92/29
f 49/92/30 50/94/30 52/98/30 51/96/30
f 51/96/31 52/98/31 54/102/31 53/100/31
f 53/100/32 54/102/32 56/106/32 55/104/32
f 55/104/33 56/106/33 58/110/33 57/108/33
f 57/108/34 58/110/34 60/114/34 59/112/34
f 59/112/35 60/114/35 62/118/35 61/116/35
f 61/116/36 62/118/36 64/122/36 63/120/36
f 63/120/37 64/122/37 66/126/37 65/124/37
f 65/124/38 66/126/38 68/130/38 67/128/38
f 67/128/39 68/130/39 70/134/39 69/132/39
f 69/132/40 70/134/40 72/138/40 71/136/40
f 71/136/41 72/138/41 74/142/41 73/140/41
f 73/140/42 74/142/42 76/146/42 75/144/42
f 75/144/43 76/146/43 78/150/43 77/148/43
f 77/148/44 78/150/44 80/155/44 79/152/44
f 22/39/4 20/34/4 82/158/4 80/154/4 78/151/4 76/147/4 74/143/4 72/139/4 70/135/4 68/131/4 66/127/4 64/123/4 62/119/4 60/115/4 58/111/4 56/107/4 54/103/4 52/99/4 50/95/4 48/91/4 46/87/4 44/83/4 42/79/4 40/75/4 38/71/4 36/67/4 34/63/4 32/59/4 30/55/4 28/51/4 26/47/4 24/43/4
f 79/152/45 80/155/45 82/159/45 81/156/45
f 81/156/46 82/159/46 20/35/46 19/31/46
f 19/32/10 21/37/10 23/41/10 25/45/10 27/49/10 29/53/10 31/57/10 33/61/10 35/65/10 37/69/10 39/73/10 41/77/10 43/81/10 45/85/10 47/89/10 49/93/10 51/97/10 53/101/10 55/105/10 57/109/10 59/113/10 61/117/10 63/121/10 65/125/10 67/129/10 69/133/10 71/137/10 73/141/10 75/145/10 77/149/10 79/153/10 81/157/10
usemtl stone
f 96/187/11 98/192/11 86/167/11 83/160/11
f 101/196/12 104/201/12 99/193/12 95/186/12
f 105/203/4 92/180/4 86/168/4 98/191/4
f 84/162/13 87/169/13 93/182/13 89/174/13
f 90/175/14 92/181/14 105/202/14 102/197/14
f 90/176/47 83/161/47 85/163/47 91/177/47
f 91/178/48 85/164/48 84/162/48 89/174/48
f 83/160/49 86/167/49 88/170/49 85/165/49
f 85/166/50 88/171/50 87/169/50 84/162/50
f 86/168/51 92/180/51 94/183/51 88/172/51
f 88/173/52 94/184/52 93/182/52 87/169/52
f 92/181/53 90/175/53 91/179/53 94/185/53
f 94/185/54 91/179/54 89/174/54 93/182/54
f 104/201/55 101/196/55 103/199/55 106/204/55
f 106/204/56 103/199/56 102/197/56 105/202/56
f 96/188/57 102/198/57 103/200/57 97/189/57
f 97/189/58 103/200/58 101/196/58 95/186/58
f 105/203/59 98/191/59 100/194/59 106/205/59
f 106/205/60 100/194/60 99/193/60 104/201/60
f 98/192/61 96/187/61 97/190/61 100/195/61
f 100/195/62 97/190/62 95/186/62 99/193/62
f 90/176/10 102/198/10 96/188/10 83/161/10
usemtl metal
f 2/3/1 5/6/1 15/24/1 13/20/1
f 1/1/2 14/21/2 18/28/2 6/7/2
f 3/4/3 6/7/3 18/28/3 16/26/3
f 3/4/4 16/26/4 17/27/4 4/5/4
f 6/7/5 3/4/5 11/16/5 12/18/5
f 3/4/4 4/5/4 10/15/4 11/16/4
f 4/5/6 17/27/6 15/24/6 5/6/6
f 9/13/4 8/11/4 7/8/4 12/17/4
f 10/15/4 9/13/4 12/17/4 11/16/4
f 5/6/7 2/3/7 8/12/7 9/14/7
f 2/3/4 1/2/4 7/9/4 8/12/4
f 1/1/8 6/7/8 12/18/8 7/10/8
f 4/5/9 5/6/9 9/14/9 10/15/9
f 15/25/10 17/27/10 16/26/10 18/29/10
f 13/19/10 15/25/10 18/29/10 14/22/10
f 2/3/4 13/20/4 14/23/4 1/2/4
