# Blender 3.6.1
# www.blender.org
o Plane
v 1.259538 1.174657 -2.550361
v 1.610504 1.343816 -1.706793
v 1.259538 1.893522 -2.550361
v 1.610504 2.062682 -1.706793
v 0.655899 0.907859 -3.075845
v 0.655899 1.626725 -3.075845
v -0.195012 0.567683 -3.092894
v -0.191958 1.287215 -3.105730
v -1.144617 0.234591 -2.632536
v -1.132399 0.956122 -2.693430
v -1.702559 -0.030116 -1.898642
v -1.699505 0.689416 -1.952127
v -1.938428 -0.251608 -1.153592
v -1.938428 0.467258 -1.168262
v 1.455062 1.267131 -2.149771
v 1.455062 1.985997 -2.149771
v 0.992346 1.054188 -2.868800
v 0.992346 1.773053 -2.868800
v 0.259370 0.742288 -3.150331
v 0.259752 1.461237 -3.151936
v -0.690413 0.394999 -2.912861
v -0.681631 1.115780 -2.950957
v -1.479987 0.093971 -2.280649
v -1.471205 0.814752 -2.345317
v -1.841953 -0.143509 -1.522491
v -1.841572 0.575440 -1.558002
vn -0.8490 -0.0000 0.5283
vn -0.6785 -0.0000 0.7346
vn -0.6289 -0.0000 0.7775
vn -0.8284 -0.0000 0.5602
vn -0.9201 -0.0000 0.3917
vn -0.9253 -0.0000 0.3791
vn -0.4022 0.0004 0.9156
vn -0.3211 0.0007 0.9470
vn -0.0748 0.0045 0.9972
vn -0.0026 0.0065 1.0000
vn 0.1896 0.0181 0.9817
vn 0.2349 0.0229 0.9718
vn 0.3861 0.0395 0.9216
vn 0.4263 0.0441 0.9035
vn 0.5838 0.0522 0.8103
vn 0.6319 0.0519 0.7733
vn 0.7726 0.0450 0.6333
vn 0.8067 0.0414 0.5895
vn 0.8932 0.0288 0.4487
vn 0.9102 0.0255 0.4134
vn 0.9684 0.0084 0.2492
vn 0.9573 0.0128 0.2889
vn 0.9510 0.0150 0.3089
vn -0.9436 -0.0000 0.3311
vt 0.000000 0.436207
vt 0.000000 0.395865
vt 1.000000 0.395865
vt 1.000000 0.436207
vt 1.000000 0.478642
vt 0.000000 0.478642
vt 0.000000 0.356596
vt 1.000000 0.356596
vt 0.000000 0.315949
vt 1.000000 0.315949
vt 0.000000 0.270441
vt 1.000000 0.270441
vt 0.000000 0.219357
vt 1.000000 0.219357
vt 0.000000 0.168067
vt 1.000000 0.168067
vt 0.000000 0.120903
vt 1.000000 0.120903
vt 0.000000 0.077520
vt 1.000000 0.077520
vt 0.000000 0.000000
vt 1.000000 0.000000
vt 1.000000 0.037856
vt 0.000000 0.037856
vt 1.000000 0.522983
vt 0.000000 0.522983
s 1
f 3/1/1 18/2/2 17/3/3 1/4/4
f 15/5/5 16/6/6 3/1/1 1/4/4
f 17/3/3 18/2/2 6/7/7 5/8/8
f 6/7/7 20/9/9 19/10/10 5/8/8
f 19/10/10 20/9/9 8/11/11 7/12/12
f 8/11/11 22/13/13 21/14/14 7/12/12
f 21/14/14 22/13/13 10/15/15 9/16/16
f 10/15/15 24/17/17 23/18/18 9/16/16
f 23/18/18 24/17/17 12/19/19 11/20/20
f 14/21/21 13/22/21 25/23/22 26/24/23
f 26/24/23 25/23/22 11/20/20 12/19/19
f 2/25/24 4/26/24 16/6/6 15/5/5
