# Blender 3.5.0
# www.blender.org
mtllib sword.mtl
o Cylinder
v 0.000000 -0.123119 0.000000
v 0.038203 -0.082949 -0.052583
v 0.061814 -0.082949 0.020084
v 0.000000 -0.082949 0.064996
v -0.061814 -0.082949 0.020084
v -0.038203 -0.082949 -0.052583
v 0.134368 0.260727 -0.062357
v 0.134368 0.260727 0.062357
v -0.134368 0.260727 -0.062357
v -0.134368 0.260727 0.062357
v -0.213444 0.304072 0.000000
v 0.134368 0.347416 -0.032879
v 0.134368 0.312806 -0.081999
v 0.134368 0.312806 0.081999
v 0.134368 0.347416 0.032879
v -0.134368 0.312806 -0.081999
v -0.134368 0.347416 -0.032879
v -0.134368 0.347416 0.032879
v -0.134368 0.312806 0.081999
v 0.213444 0.304072 0.000000
v 0.060614 0.965105 0.021853
v 0.060614 0.965105 -0.021853
v 0.064162 0.776432 0.021853
v 0.064162 0.776432 -0.021853
v 0.064162 0.347416 0.021853
v 0.064162 0.347416 -0.021853
v 0.123153 0.347416 0.000000
v -0.123153 0.347416 0.000000
v 0.000000 0.347416 0.021853
v 0.000000 0.347416 -0.021853
v 0.000000 0.776432 0.021853
v 0.000000 0.776432 -0.021853
v 0.123153 0.776432 0.000000
v -0.123153 0.776432 0.000000
v 0.000000 0.965105 0.021853
v -0.132049 0.965105 0.000000
v 0.000000 0.965105 -0.021853
v 0.132049 0.965105 0.000000
v 0.000000 1.258313 0.021853
v 0.000000 1.258313 -0.021853
v 0.145814 1.258313 0.000000
v -0.145814 1.258313 0.000000
v -0.023776 1.496709 -0.012416
v -0.023776 1.496709 0.012416
v 0.023776 1.496709 -0.012416
v 0.023776 1.496709 0.012416
v 0.000000 1.496709 0.012416
v -0.104903 1.409379 0.000000
v 0.000000 1.409379 -0.021853
v 0.104903 1.409379 0.000000
v 0.000000 1.409379 0.021853
v 0.123153 0.561924 0.000000
v -0.123153 0.561924 0.000000
v 0.000000 0.561924 -0.021853
v 0.000000 0.561924 0.021853
v 0.060049 1.258313 -0.021853
v 0.060049 1.258313 0.021853
v 0.052816 1.496709 0.000000
v 0.047223 1.409379 0.021853
v 0.047223 1.409379 -0.021853
v 0.064162 0.561924 -0.021853
v 0.064162 0.561924 0.021853
v -0.064162 0.347416 0.021853
v -0.064162 0.347416 -0.021853
v -0.064162 0.776432 0.021853
v -0.064162 0.776432 -0.021853
v -0.060614 0.965105 0.021853
v -0.060614 0.965105 -0.021853
v -0.060049 1.258313 0.021853
v -0.060049 1.258313 -0.021853
v 0.000000 1.496709 -0.012416
v -0.052816 1.496709 0.000000
v -0.047223 1.409379 0.021853
v -0.047223 1.409379 -0.021853
v -0.064162 0.561924 0.021853
v -0.064162 0.561924 -0.021853
v 0.000000 1.566713 0.000000
v 0.000000 1.111709 0.021853
v 0.000000 1.111709 -0.021853
v 0.060949 1.111709 -0.021853
v 0.060949 1.111709 0.021853
v -0.060949 1.111709 -0.021853
v -0.060949 1.111709 0.021853
v 0.140286 1.111709 0.000000
v -0.140286 1.111709 0.000000
v 0.000000 -0.017952 -0.064996
v 0.061814 -0.017952 -0.020084
v 0.038203 -0.017952 0.052583
v -0.038203 -0.017952 0.052583
v -0.061814 -0.017952 -0.020084
v 0.030947 0.269966 -0.010055
v 0.000000 0.269966 -0.032540
v 0.019126 0.269966 0.026326
v -0.019126 0.269966 0.026326
v -0.030947 0.269966 -0.010055
v 0.030947 0.019113 -0.010055
v 0.042427 -0.001019 -0.013785
v 0.019126 0.019113 0.026326
v 0.026221 -0.001019 0.036091
v -0.019126 0.019113 0.026326
v -0.026221 -0.001019 0.036091
v -0.030947 0.019113 -0.010055
v -0.042427 -0.001019 -0.013785
v 0.000000 -0.001019 -0.044611
v 0.000000 0.019113 -0.032540
vn 0.5774 -0.7947 -0.1876
vn -0.0000 -0.7947 -0.6071
vn 0.3568 -0.7947 0.4911
vn -0.3568 -0.7947 0.4911
vn -0.5774 -0.7947 -0.1876
vn -0.0000 -0.1876 -0.9822
vn 0.9342 -0.1876 -0.3035
vn 0.5774 -0.1876 0.7946
vn -0.5774 -0.1876 0.7946
vn -0.9342 -0.1876 -0.3035
vn 0.5774 0.1876 -0.7946
vn 0.9342 0.1876 0.3035
vn -0.0000 0.1876 0.9822
vn -0.9342 0.1876 0.3035
vn -0.5774 0.1876 -0.7946
vn -0.4211 0.6977 -0.5796
vn -0.0000 -0.0000 1.0000
vn -0.6813 0.6977 0.2214
vn 0.6813 0.6977 0.2214
vn -0.0000 0.6977 0.7164
vn -0.0000 1.0000 -0.0000
vn 0.6815 -0.2583 0.6847
vn 0.6815 -0.2583 -0.6847
vn -0.6815 -0.2583 -0.6847
vn -0.4807 -0.8769 -0.0000
vn -0.0000 -1.0000 -0.0000
vn 0.4807 -0.8769 -0.0000
vn -0.6815 -0.2583 0.6847
vn -0.4807 0.8769 -0.0000
vn -0.0000 -0.3529 -0.9357
vn -0.0000 -0.3529 0.9357
vn -0.0000 0.8175 0.5760
vn 0.5666 0.6736 0.4746
vn -0.5666 0.6736 0.4746
vn 0.5666 0.6736 -0.4746
vn -0.5666 0.6736 -0.4746
vn 0.4807 0.8769 -0.0000
vn -0.0000 0.1746 -0.9846
vn -0.0000 0.1074 -0.9942
vn 0.3769 0.2843 0.8815
vn 0.2911 0.0518 -0.9553
vn -0.3474 -0.0000 -0.9377
vn -0.3177 -0.0045 -0.9482
vn 0.3474 -0.0000 0.9377
vn -0.0000 -0.0000 -1.0000
vn 0.2559 -0.0040 0.9667
vn 0.3177 -0.0045 0.9482
vn -0.0000 0.1074 0.9942
vn -0.3597 0.2048 -0.9103
vn -0.2559 -0.0040 -0.9667
vn 0.3597 0.2048 -0.9103
vn -0.3769 0.2843 0.8815
vn 0.2911 0.0518 0.9553
vn -0.2911 0.0518 -0.9553
vn 0.3474 -0.0000 -0.9377
vn -0.0000 0.8175 -0.5760
vn 0.2559 -0.0040 -0.9667
vn 0.3177 -0.0045 -0.9482
vn -0.3474 -0.0000 0.9377
vn -0.2911 0.0518 0.9553
vn -0.3597 0.2048 0.9103
vn -0.2559 -0.0040 0.9667
vn 0.3597 0.2048 0.9103
vn -0.3177 -0.0045 0.9482
vn -0.0000 0.1746 0.9846
vn 0.3769 0.2843 -0.8815
vn -0.3769 0.2843 -0.8815
vn -0.2784 -0.0081 0.9604
vn 0.2784 -0.0081 -0.9604
vn -0.2784 -0.0081 -0.9604
vn 0.2784 -0.0081 0.9604
vn 0.9511 -0.0000 0.3090
vn 0.4211 0.6977 -0.5796
vn -0.9511 -0.0000 0.3090
vn -0.5878 -0.0000 -0.8090
vn 0.5289 0.4364 -0.7279
vn 0.8557 0.4364 0.2780
vn -0.0000 0.4364 0.8997
vn -0.8557 0.4364 0.2780
vn -0.5289 0.4364 -0.7279
vn 0.5878 -0.0000 -0.8090
vt 0.181819 0.000000
vt 0.363637 0.000000
vt 0.909091 0.000000
vt 0.727273 0.000000
vt 0.545455 0.000000
vt 0.272728 0.157461
vt 1.000000 0.157461
vt 0.090910 0.157461
vt 0.818182 0.157461
vt 0.636364 0.157461
vt 0.454546 0.157461
vt 0.625000 0.000000
vt 0.375000 0.500000
vt 0.625000 0.250000
vt 0.375000 0.750000
vt 0.375000 0.000000
vt 0.375000 0.250000
vt 0.375000 0.250000
vt 0.375000 1.000000
vt 0.625000 0.250000
vt 0.375000 0.000000
vt 0.375000 1.000000
vt 0.375000 0.750000
vt 0.125000 0.574879
vt 0.525188 0.500000
vt 0.125000 0.500000
vt 0.525188 0.750000
vt 0.125000 0.750000
vt 0.125000 0.675121
vt 0.525188 0.250000
vt 0.375000 0.500000
vt 0.375000 0.574879
vt 0.375000 0.675121
vt 0.525188 1.000000
vt 0.375000 0.750000
vt 0.625000 0.750000
vt 0.375000 0.500000
vt 0.625000 0.250000
vt 0.125000 0.500000
vt 0.187500 0.675121
vt 0.187500 0.574879
vt 0.187500 0.675121
vt 0.187500 0.574879
vt 0.187500 0.675121
vt 0.187500 0.574879
vt 0.125000 0.675121
vt 0.125000 0.574879
vt 0.375000 0.574879
vt 0.375000 0.675121
vt 0.250000 0.675121
vt 0.250000 0.574879
vt 0.250000 0.675121
vt 0.250000 0.574879
vt 0.125000 0.675121
vt 0.125000 0.574879
vt 0.375000 0.574879
vt 0.375000 0.675121
vt 0.250000 0.675121
vt 0.375000 0.675121
vt 0.375000 0.574879
vt 0.250000 0.574879
vt 0.125000 0.574879
vt 0.125000 0.675121
vt 0.250000 0.675121
vt 0.250000 0.574879
vt 0.125000 0.675121
vt 0.125000 0.574879
vt 0.375000 0.574879
vt 0.375000 0.675121
vt 0.344100 0.574879
vt 0.271496 0.675121
vt 0.228504 0.574879
vt 0.155900 0.675121
vt 0.171254 0.675121
vt 0.375000 0.574879
vt 0.375000 0.675121
vt 0.250000 0.574879
vt 0.125000 0.574879
vt 0.125000 0.675121
vt 0.250000 0.675121
vt 0.125000 0.675121
vt 0.125000 0.574879
vt 0.375000 0.574879
vt 0.375000 0.675121
vt 0.250000 0.574879
vt 0.250000 0.675121
vt 0.187500 0.574879
vt 0.187500 0.675121
vt 0.098985 0.675121
vt 0.174463 0.574879
vt 0.187500 0.675121
vt 0.187500 0.574879
vt 0.187500 0.574879
vt 0.187500 0.675121
vt 0.312500 0.675121
vt 0.312500 0.574879
vt 0.312500 0.675121
vt 0.312500 0.574879
vt 0.312500 0.675121
vt 0.312500 0.574879
vt 0.312500 0.675121
vt 0.312500 0.574879
vt 0.328746 0.574879
vt 0.325535 0.675121
vt 0.401014 0.574879
vt 0.312500 0.675121
vt 0.312500 0.574879
vt 0.312500 0.675121
vt 0.312500 0.574879
vt 0.187500 0.574879
vt 0.187500 0.675121
vt 0.375000 0.675121
vt 0.250000 0.574879
vt 0.312500 0.675121
vt 0.125000 0.574879
vt 0.250000 0.675121
vt 0.312500 0.574879
vt 0.250000 0.675121
vt 0.250000 0.574879
vt 0.187500 0.574879
vt 0.187500 0.675121
vt 0.312500 0.574879
vt 0.312500 0.675121
vt 0.125000 0.574879
vt 0.125000 0.675121
vt 0.375000 0.675121
vt 0.375000 0.574879
vt 0.363637 0.314921
vt 0.181819 0.314921
vt 0.000000 0.314921
vt 0.909091 0.314921
vt 0.727273 0.314921
vt 0.545455 0.314921
vt 0.155739 0.363245
vt 0.389717 0.363245
vt 0.883010 0.363245
vt 0.026081 0.363245
vt 0.701193 0.363245
vt 0.519374 0.363245
vt 0.155739 0.363245
vt 0.168947 0.338771
vt 0.026081 0.363245
vt 0.883010 0.363245
vt 0.012872 0.338771
vt 0.896219 0.338771
vt 0.701193 0.363245
vt 0.714401 0.338771
vt 0.519374 0.363245
vt 0.532583 0.338771
vt 0.376509 0.338771
vt 0.389717 0.363245
s 0
usemtl blade
f 45/72/38 71/103/38 77/110/38
f 60/92/39 49/77/39 71/103/39 45/72/39
f 46/73/40 58/89/40 77/111/40
f 39/64/17 57/88/17 59/91/17 51/80/17
f 41/67/41 56/87/41 60/92/41 50/78/41
f 76/109/42 53/83/42 34/56/42 66/98/42
f 66/98/43 34/56/43 36/60/43 68/100/43
f 62/94/44 52/81/44 33/54/44 23/42/44
f 61/93/45 54/85/45 32/53/45 24/43/45
f 75/108/17 55/86/17 31/52/17 65/97/17
f 81/121/46 84/125/46 41/66/46 57/88/46
f 24/43/45 32/53/45 37/61/45 22/41/45
f 23/42/47 33/54/47 38/63/47 21/40/47
f 65/97/17 31/52/17 35/58/17 67/99/17
f 73/106/48 51/80/48 47/74/48 44/71/48
f 74/107/49 48/75/49 72/105/49 43/70/49
f 83/123/17 78/118/17 39/64/17 69/101/17
f 82/122/50 85/127/50 42/68/50 70/102/50
f 80/120/45 79/119/45 40/65/45 56/87/45
f 51/80/48 59/91/48 46/73/48 47/74/48
f 50/78/51 60/92/51 45/72/51 58/90/51
f 72/104/52 44/71/52 77/112/52
f 69/101/17 39/64/17 51/80/17 73/106/17
f 57/88/53 41/66/53 50/79/53 59/91/53
f 56/87/45 40/65/45 49/77/45 60/92/45
f 70/102/54 42/68/54 48/75/54 74/107/54
f 63/95/17 29/50/17 55/86/17 75/108/17
f 26/45/45 30/51/45 54/85/45 61/93/45
f 25/44/44 27/46/44 52/81/44 62/94/44
f 64/96/42 28/48/42 53/83/42 76/109/42
f 29/50/17 25/44/17 62/94/17 55/86/17
f 27/47/55 26/45/55 61/93/55 52/82/55
f 84/124/57 80/120/57 56/87/57 41/67/57
f 31/52/17 23/42/17 21/40/17 35/58/17
f 33/55/58 24/43/58 22/41/58 38/62/58
f 78/118/17 81/121/17 57/88/17 39/64/17
f 52/82/55 61/93/55 24/43/55 33/55/55
f 55/86/17 62/94/17 23/42/17 31/52/17
f 30/51/45 64/96/45 76/109/45 54/85/45
f 28/49/59 63/95/59 75/108/59 53/84/59
f 40/65/45 70/102/45 74/107/45 49/77/45
f 42/69/60 69/101/60 73/106/60 48/76/60
f 48/76/61 73/106/61 44/71/61 72/104/61
f 49/77/39 74/107/39 43/70/39 71/103/39
f 79/119/45 82/122/45 70/102/45 40/65/45
f 85/126/62 83/123/62 69/101/62 42/69/62
f 59/91/63 50/79/63 58/89/63 46/73/63
f 34/57/64 65/97/64 67/99/64 36/59/64
f 53/84/59 75/108/59 65/97/59 34/57/59
f 32/53/45 66/98/45 68/100/45 37/61/45
f 54/85/45 76/109/45 66/98/45 32/53/45
f 71/103/38 43/70/38 77/113/38
f 44/71/65 47/74/65 77/114/65
f 58/90/66 45/72/66 77/115/66
f 47/74/65 46/73/65 77/116/65
f 43/70/67 72/105/67 77/117/67
f 36/59/68 67/99/68 83/123/68 85/126/68
f 37/61/45 68/100/45 82/122/45 79/119/45
f 35/58/17 21/40/17 81/121/17 78/118/17
f 38/62/69 22/41/69 80/120/69 84/124/69
f 22/41/45 37/61/45 79/119/45 80/120/45
f 68/100/70 36/60/70 85/127/70 82/122/70
f 67/99/17 35/58/17 78/118/17 83/123/17
f 21/40/71 38/63/71 84/125/71 81/121/71
usemtl guard
f 18/33/21 15/29/21 12/24/21 17/32/21
f 14/27/22 8/15/22 20/36/22
f 7/13/23 13/25/23 20/37/23
f 16/30/24 9/17/24 11/20/24
f 9/16/25 10/18/25 11/21/25
f 9/16/26 7/12/26 8/14/26 10/18/26
f 8/14/27 7/12/27 20/38/27
f 10/19/28 19/34/28 11/22/28
f 18/33/29 17/32/29 11/23/29
f 9/17/30 16/30/30 13/25/30 7/13/30
f 8/15/31 14/27/31 19/34/31 10/19/31
f 15/29/32 18/33/32 19/35/32 14/28/32
f 20/39/33 15/29/33 14/28/33
f 18/33/34 11/23/34 19/35/34
f 20/39/35 13/26/35 12/24/35
f 16/31/36 11/23/36 17/32/36
f 12/24/37 15/29/37 20/39/37
f 17/32/56 12/24/56 13/26/56 16/31/56
usemtl pommel
f 1/1/1 2/6/1 3/8/1
f 2/6/2 1/2/2 6/11/2
f 1/3/3 3/7/3 4/9/3
f 1/4/4 4/9/4 5/10/4
f 1/5/5 5/10/5 6/11/5
f 2/6/6 6/11/6 86/128/6
f 3/8/7 2/6/7 87/129/7
f 4/9/8 3/7/8 88/131/8
f 5/10/9 4/9/9 89/132/9
f 6/11/10 5/10/10 90/133/10
f 2/6/11 86/128/11 87/129/11
f 3/8/12 87/129/12 88/130/12
f 4/9/13 88/131/13 89/132/13
f 5/10/14 89/132/14 90/133/14
f 6/11/15 90/133/15 86/128/15
f 103/149/16 104/150/16 86/128/16 90/133/16
f 100/146/17 98/143/17 93/136/17 94/138/17
f 101/147/18 103/149/18 90/133/18 89/132/18
f 97/141/19 99/144/19 88/130/19 87/129/19
f 99/145/20 101/147/20 89/132/20 88/131/20
f 98/142/72 96/140/72 91/134/72 93/137/72
f 104/150/73 97/141/73 87/129/73 86/128/73
f 102/148/74 100/146/74 94/138/74 95/139/74
f 105/151/75 102/148/75 95/139/75 92/135/75
f 105/151/76 96/140/76 97/141/76 104/150/76
f 96/140/77 98/142/77 99/144/77 97/141/77
f 98/143/78 100/146/78 101/147/78 99/145/78
f 100/146/79 102/148/79 103/149/79 101/147/79
f 102/148/80 105/151/80 104/150/80 103/149/80
f 96/140/81 105/151/81 92/135/81 91/134/81
