# Blender 3.5.0
# www.blender.org
mtllib plat_hole1.mtl
o Cube
v -19.307302 -0.531479 19.307302
v -19.307302 0.531479 19.307302
v -19.307302 -0.531479 -19.307302
v -19.307302 0.531479 -19.307302
v 19.307302 -0.531479 19.307302
v 19.307302 0.531479 19.307302
v 19.307302 -0.531479 -19.307302
v 19.307302 0.531479 -19.307302
v 7.172621 -0.531478 -2.513207
v 2.187535 -0.531479 7.140462
v -7.094323 -0.531479 5.576218
v -8.285770 -0.531479 -1.292127
v -2.490869 -0.531479 -8.001043
v 7.172614 0.531480 -2.513208
v 2.187530 0.531479 7.140462
v -7.094323 0.531479 5.576220
v -8.285772 0.531479 -1.292125
v -2.490871 0.531479 -8.001043
vn -1.0000 -0.0000 -0.0000
vn -0.0000 -0.0000 -1.0000
vn 1.0000 -0.0000 -0.0000
vn -0.0000 -0.0000 1.0000
vn -0.0000 -1.0000 -0.0000
vn -0.0000 1.0000 -0.0000
vn -0.4938 -0.0000 0.8696
vn 0.7568 -0.0000 0.6537
vn 0.9853 -0.0000 -0.1709
vn 0.1662 -0.0000 -0.9861
vn -0.8885 -0.0000 -0.4588
vt -2.798537 -2.798537
vt -2.798537 -2.798537
vt -2.798537 3.798537
vt -2.798537 3.798537
vt 3.798537 -2.798537
vt 3.798537 -2.798537
vt 3.798537 3.798537
vt 3.798537 3.798537
vt 1.725399 0.929367
vt 0.873727 -0.719905
vt -0.712022 -0.452664
vt -0.915574 0.720752
vt 0.074450 1.866930
vt 1.725399 0.929367
vt 0.873727 -0.719905
vt -0.712022 -0.452664
vt -0.915574 0.720752
vt 0.074449 1.866930
s 0
f 1/1/1 2/2/1 4/4/1 3/3/1
f 3/3/2 4/4/2 8/8/2 7/7/2
f 7/7/3 8/8/3 6/6/3 5/5/3
f 5/5/4 6/6/4 2/2/4 1/1/4
f 3/3/5 7/7/5 9/9/5 13/13/5 12/12/5
f 2/2/6 16/16/6 17/17/6 4/4/6
f 10/10/5 9/9/5 7/7/5 5/5/5
f 4/4/6 17/17/6 18/18/6 14/14/6 8/8/6
f 14/14/7 18/18/7 13/13/7 9/9/7
f 18/18/8 17/17/8 12/12/8 13/13/8
f 17/17/9 16/16/9 11/11/9 12/12/9
f 16/16/10 15/15/10 10/10/10 11/11/10
f 15/15/11 14/14/11 9/9/11 10/10/11
f 6/6/6 15/15/6 16/16/6 2/2/6
f 8/8/6 14/14/6 15/15/6 6/6/6
f 12/12/5 11/11/5 1/1/5 3/3/5
f 11/11/5 10/10/5 5/5/5 1/1/5
