# Blender 3.5.0
# www.blender.org
mtllib lantern.mtl
o Cube
v -0.407065 3.254814 0.366272
v -0.666020 4.390797 0.625227
v -0.366272 3.254814 -0.407065
v -0.625227 4.390797 -0.666020
v 0.407065 3.254814 0.366272
v 0.666020 4.390797 0.625227
v 0.407065 3.254814 -0.366272
v 0.666020 4.390797 -0.625227
v 0.625227 4.390797 -0.666020
v 0.366272 3.254814 -0.407065
v 0.366272 3.254814 0.407065
v 0.625227 4.390797 0.666020
v -0.666020 4.390797 -0.625227
v -0.407065 3.254814 -0.366272
v 0.674871 4.429622 -0.674871
v -0.366272 3.254814 0.407065
v -0.625227 4.390797 0.666020
v -0.674871 4.429622 -0.674871
v -0.674871 4.429622 0.674871
v 0.674871 4.429622 0.674871
v -0.293018 3.377263 0.394135
v -0.500181 4.286049 0.601299
v 0.500181 4.286049 0.601299
v 0.293018 3.377263 0.394135
v -0.394135 3.377263 -0.293018
v -0.394135 3.377263 0.293018
v -0.601299 4.286049 0.500181
v -0.601299 4.286049 -0.500181
v -0.500181 4.286049 -0.601299
v -0.293018 3.377263 -0.394135
v 0.293018 3.377263 -0.394135
v 0.500181 4.286049 -0.601299
v 0.601299 4.286049 -0.500181
v 0.394135 3.377263 -0.293018
v 0.394135 3.377263 0.293018
v 0.601299 4.286049 0.500181
v -0.398215 3.215989 -0.398215
v -0.398215 3.215989 0.398215
v 0.398215 3.215989 -0.398215
v 0.398215 3.215989 0.398215
v 0.198020 3.215989 -0.141794
v 0.141794 3.215989 -0.198020
v 0.237777 3.215989 -0.237777
v 0.181552 3.215989 -0.181552
v -0.141794 3.215989 -0.198020
v -0.198020 3.215989 -0.141794
v -0.237777 3.215989 -0.237777
v -0.181552 3.215989 -0.181552
v -0.198020 3.215989 0.141794
v -0.141794 3.215989 0.198020
v -0.237777 3.215989 0.237777
v -0.181552 3.215989 0.181552
v 0.141794 3.215989 0.198020
v 0.198020 3.215989 0.141794
v 0.237777 3.215989 0.237777
v 0.181552 3.215989 0.181552
v -0.198020 -0.072507 -0.141794
v -0.141794 -0.072507 -0.198020
v -0.181552 -0.072507 -0.181552
v -0.141794 -0.072507 0.198020
v -0.198020 -0.072507 0.141794
v -0.181552 -0.072507 0.181552
v 0.141794 -0.072507 -0.198020
v 0.198020 -0.072507 -0.141794
v 0.181552 -0.072507 -0.181552
v 0.198020 -0.072507 0.141794
v 0.141794 -0.072507 0.198020
v 0.181552 -0.072507 0.181552
v -0.569784 4.551950 0.569784
v -0.569784 4.551950 -0.569784
v 0.569784 4.551950 -0.569784
v 0.569784 4.551950 0.569784
vn -0.8507 -0.5256 -0.0000
vn -0.0000 0.1050 -0.9945
vn 0.9200 -0.1251 -0.3714
vn -0.0000 0.1050 0.9945
vn -0.0000 -1.0000 -0.0000
vn -0.7585 0.6516 -0.0000
vn 0.9750 -0.2223 -0.0000
vn -0.0000 -0.2223 -0.9750
vn -0.9750 -0.2223 -0.0000
vn -0.0000 -0.2223 0.9750
vn 0.3714 -0.1251 0.9200
vn -0.0000 -0.5256 0.8507
vn -0.3714 -0.1251 0.9200
vn -0.9945 0.1050 -0.0000
vn -0.9200 -0.1251 0.3714
vn -0.9200 -0.1251 -0.3714
vn -0.0000 -0.5256 -0.8507
vn 0.3714 -0.1251 -0.9200
vn -0.3714 -0.1251 -0.9200
vn 0.9945 0.1050 -0.0000
vn 0.8507 -0.5256 -0.0000
vn 0.9200 -0.1251 0.3714
vn -0.0000 -0.0000 1.0000
vn 1.0000 -0.0000 -0.0000
vn -1.0000 -0.0000 -0.0000
vn 0.3827 -0.0000 0.9239
vn 0.9239 -0.0000 0.3827
vn 0.3827 -0.0000 -0.9239
vn 0.9239 -0.0000 -0.3827
vn -0.3827 -0.0000 -0.9239
vn -0.9239 -0.0000 -0.3827
vn -0.3827 -0.0000 0.9239
vn -0.9239 -0.0000 0.3827
vn -0.0000 -0.0000 -1.0000
vn -0.0000 1.0000 -0.0000
vn -0.0000 0.6516 0.7585
vn -0.0000 0.6516 -0.7585
vn 0.7585 0.6516 -0.0000
vt 0.382998 0.011480
vt 0.617002 0.008091
vt 0.382998 0.261480
vt 0.617002 0.258091
vt 0.382998 0.738520
vt 0.617002 0.741909
vt 0.382998 0.511480
vt 0.617002 0.508091
vt 0.617002 0.491909
vt 0.382998 0.488520
vt 0.382998 0.761480
vt 0.617002 0.758091
vt 0.617002 0.241909
vt 0.382998 0.238520
vt 0.625000 0.500000
vt 0.382998 0.988520
vt 0.617002 0.991909
vt 0.625000 0.250000
vt 0.625000 0.000000
vt 0.625000 1.000000
vt 0.625000 0.750000
vt 0.382998 0.988520
vt 0.617002 0.991909
vt 0.617002 0.758091
vt 0.382998 0.761480
vt 0.382998 0.238520
vt 0.382998 0.011480
vt 0.617002 0.008091
vt 0.617002 0.241909
vt 0.617002 0.258091
vt 0.382998 0.261480
vt 0.382998 0.488520
vt 0.617002 0.491909
vt 0.617002 0.508091
vt 0.382998 0.511480
vt 0.382998 0.738520
vt 0.617002 0.741909
vt 0.375000 0.250000
vt 0.125000 0.500000
vt 0.375000 0.000000
vt 0.375000 1.000000
vt 0.125000 0.750000
vt 0.375000 0.500000
vt 0.375000 0.750000
vt 0.312159 0.580491
vt 0.312159 0.562841
vt 0.294509 0.562841
vt 0.324639 0.550362
vt 0.312159 0.568011
vt 0.312159 0.562841
vt 0.205491 0.562841
vt 0.187841 0.562841
vt 0.187841 0.580491
vt 0.175361 0.550362
vt 0.193011 0.562841
vt 0.187841 0.562841
vt 0.187841 0.669509
vt 0.187841 0.687159
vt 0.205491 0.687159
vt 0.175361 0.699638
vt 0.187841 0.681989
vt 0.187841 0.687159
vt 0.294509 0.687159
vt 0.312159 0.687159
vt 0.312159 0.669509
vt 0.324638 0.699638
vt 0.306989 0.687159
vt 0.312159 0.687159
vt 0.187841 0.580491
vt 0.205491 0.562841
vt 0.189564 0.564564
vt 0.205491 0.687159
vt 0.187841 0.669509
vt 0.189564 0.685435
vt 0.294509 0.562841
vt 0.312159 0.580491
vt 0.310436 0.564565
vt 0.312159 0.669509
vt 0.294509 0.687159
vt 0.310436 0.685436
vt 0.625000 0.000000
vt 0.875000 0.750000
vt 0.625000 1.000000
vt 0.875000 0.500000
vt 0.625000 0.250000
vt 0.625000 0.500000
vt 0.625000 0.750000
s 0
usemtl base
f 2/2/1 13/13/1 28/29/1 27/28/1
f 10/10/2 3/3/2 30/31/2 31/32/2
f 6/6/3 5/5/3 35/36/3 36/37/3
f 16/16/4 11/11/4 24/25/4 21/22/4
f 55/66/5 54/65/5 41/45/5 43/48/5 39/43/5 40/44/5
f 18/18/6 19/19/6 69/81/6 70/85/6
f 8/8/7 7/7/7 39/43/7 15/15/7
f 7/7/7 5/5/7 40/44/7 39/43/7
f 6/6/7 8/8/7 15/15/7 20/21/7
f 5/5/7 6/6/7 20/21/7 40/44/7
f 4/4/8 3/3/8 37/38/8 18/18/8
f 3/3/8 10/10/8 39/43/8 37/38/8
f 9/9/8 4/4/8 18/18/8 15/15/8
f 10/10/8 9/9/8 15/15/8 39/43/8
f 1/1/9 14/14/9 37/38/9 38/40/9
f 2/2/9 1/1/9 38/40/9 19/19/9
f 13/13/9 2/2/9 19/19/9 18/18/9
f 14/14/9 13/13/9 18/18/9 37/38/9
f 16/16/10 17/17/10 19/20/10 38/41/10
f 12/12/10 11/11/10 40/44/10 20/21/10
f 11/11/10 16/16/10 38/41/10 40/44/10
f 17/17/10 12/12/10 20/21/10 19/20/10
f 17/17/11 16/16/11 21/22/11 22/23/11
f 12/12/12 17/17/12 22/23/12 23/24/12
f 11/11/13 12/12/13 23/24/13 24/25/13
f 14/14/14 1/1/14 26/27/14 25/26/14
f 13/13/15 14/14/15 25/26/15 28/29/15
f 1/1/16 2/2/16 27/28/16 26/27/16
f 4/4/17 9/9/17 32/33/17 29/30/17
f 3/3/18 4/4/18 29/30/18 30/31/18
f 9/9/19 10/10/19 31/32/19 32/33/19
f 5/5/20 7/7/20 34/35/20 35/36/20
f 8/8/21 6/6/21 36/37/21 33/34/21
f 7/7/22 8/8/22 33/34/22 34/35/22
f 53/63/23 50/59/23 60/72/23 67/79/23
f 41/45/24 54/65/24 66/78/24 64/76/24
f 49/57/25 46/53/25 57/69/25 61/73/25
f 57/69/5 59/71/5 58/70/5 63/75/5 65/77/5 64/76/5 66/78/5 68/80/5 67/79/5 60/72/5 62/74/5 61/73/5
f 47/54/5 46/53/5 49/57/5 51/60/5 38/42/5 37/39/5
f 51/60/5 50/59/5 53/63/5 55/66/5 40/44/5 38/42/5
f 43/48/5 42/47/5 45/51/5 47/54/5 37/39/5 39/43/5
f 41/45/5 44/49/5 43/48/5
f 44/49/5 42/46/5 43/48/5
f 45/51/5 48/55/5 47/54/5
f 48/55/5 46/52/5 47/54/5
f 49/57/5 52/61/5 51/60/5
f 52/61/5 50/58/5 51/60/5
f 53/63/5 56/67/5 55/66/5
f 56/67/5 54/64/5 55/66/5
f 53/63/26 67/79/26 68/80/26 56/68/26
f 56/68/27 68/80/27 66/78/27 54/65/27
f 63/75/28 42/47/28 44/50/28 65/77/28
f 65/77/29 44/50/29 41/45/29 64/76/29
f 45/51/30 58/70/30 59/71/30 48/56/30
f 48/56/31 59/71/31 57/69/31 46/53/31
f 60/72/32 50/59/32 52/62/32 62/74/32
f 62/74/33 52/62/33 49/57/33 61/73/33
f 45/51/34 42/47/34 63/75/34 58/70/34
f 71/86/35 70/84/35 69/82/35 72/87/35
f 19/20/36 20/21/36 72/87/36 69/83/36
f 15/15/37 18/18/37 70/85/37 71/86/37
f 20/21/38 15/15/38 71/86/38 72/87/38
usemtl light
f 24/25/10 23/24/10 22/23/10 21/22/10
f 26/27/9 27/28/9 28/29/9 25/26/9
f 30/31/8 29/30/8 32/33/8 31/32/8
f 34/35/7 33/34/7 36/37/7 35/36/7
